<svg xmlns="http://www.w3.org/2000/svg" version="1.1" xmlns:xlink="http://www.w3.org/1999/xlink" xmlns:svgjs="http://svgjs.dev/svgjs" width="1000" height="1000" viewBox="0 0 1000 1000"><rect width="1000" height="1000" fill="#000000"></rect><g transform="matrix(0.7,0,0,0.7,149.57575795198238,330.43839680800204)"><svg viewBox="0 0 396 192" data-background-color="#ffffff" preserveAspectRatio="xMidYMid meet" height="484" width="1000" xmlns="http://www.w3.org/2000/svg" xmlns:xlink="http://www.w3.org/1999/xlink"><g id="tight-bounds" transform="matrix(1,0,0,1,0.2399997871642654,0.09158150195871428)"><svg viewBox="0 0 395.52 191.81677994990267" height="191.81677994990267" width="395.52"><g><svg viewBox="0 0 937.7372569420144 454.77786474937227" height="191.81677994990267" width="395.52"><g transform="matrix(1,0,0,1,542.2172569420144,92.92803385638635)"><svg viewBox="0 0 395.52 268.92179703659957" height="268.92179703659957" width="395.52"><g id="textblocktransform"><svg viewBox="0 0 395.52 268.92179703659957" height="268.92179703659957" width="395.52" id="textblock"><g><rect width="0" height="16.700923908794646" y="240.56694013045762" fill="#ffffff" data-fill-palette-color="tertiary"></rect><rect width="0" height="16.700923908794646" y="240.56694013045762" x="395.52" fill="#ffffff" data-fill-palette-color="tertiary"></rect></g><g><svg viewBox="0 0 395.52 185.19331103678928" height="185.19331103678928" width="395.52"><g transform="matrix(1,0,0,1,0,0)"><svg width="395.52" viewBox="4.949999809265137 -35 74.75 35" height="185.19331103678928" data-palette-color="#555759"><path d="M12.95 0L12.95 0 4.95 0 4.95-35 11.05-35Q17.65-35 21-32.58 24.35-30.15 24.35-25.75L24.35-25.75Q24.35-20.75 20.15-18.4L20.15-18.4Q26.25-16.1 26.25-9.75L26.25-9.75Q26.25-5.25 22.95-2.63 19.65 0 12.95 0ZM6.45-1.5L12.95-1.5Q15.3-1.5 17.25-1.88 19.2-2.25 20.98-3.13 22.75-4 23.75-5.7 24.75-7.4 24.75-9.75L24.75-9.75Q24.75-15.1 19.6-17L19.6-17 16.6-18.1 19.4-19.7Q22.85-21.6 22.85-25.75L22.85-25.75Q22.85-33.5 11.05-33.5L11.05-33.5 6.45-33.5 6.45-1.5ZM29.95-29L52.45-29 52.45-27.5 41.95-27.5 41.95 0 40.45 0 40.45-27.5 29.95-27.5 29.95-29ZM66.4 0L66.4 0 58.4 0 58.4-35 64.5-35Q71.1-35 74.45-32.58 77.8-30.15 77.8-25.75L77.8-25.75Q77.8-20.75 73.6-18.4L73.6-18.4Q79.7-16.1 79.7-9.75L79.7-9.75Q79.7-5.25 76.4-2.63 73.1 0 66.4 0ZM59.9-1.5L66.4-1.5Q68.75-1.5 70.7-1.88 72.65-2.25 74.42-3.13 76.2-4 77.2-5.7 78.2-7.4 78.2-9.75L78.2-9.75Q78.2-15.1 73.05-17L73.05-17 70.05-18.1 72.85-19.7Q76.3-21.6 76.3-25.75L76.3-25.75Q76.3-33.5 64.5-33.5L64.5-33.5 59.9-33.5 59.9-1.5Z" opacity="1" transform="matrix(1,0,0,1,0,0)" fill="#ffffff" class="wordmark-text-0" data-fill-palette-color="primary" id="text-0"></path></svg></g></svg></g><g transform="matrix(1,0,0,1,0,228.91300713311034)"><svg viewBox="0 0 395.52 40.00878990348924" height="40.00878990348924" width="395.52"><g transform="matrix(1,0,0,1,8,0)"><svg width="379.52" viewBox="4.949999809265137 -35 336.7200012207031 35.5" height="40.00878990348924" data-palette-color="#555759"><path d="M12.95 0L12.95 0 4.95 0 4.95-35 11.05-35Q17.65-35 21-32.58 24.35-30.15 24.35-25.75L24.35-25.75Q24.35-20.75 20.15-18.4L20.15-18.4Q26.25-16.1 26.25-9.75L26.25-9.75Q26.25-5.25 22.95-2.63 19.65 0 12.95 0ZM6.45-1.5L12.95-1.5Q15.3-1.5 17.25-1.88 19.2-2.25 20.98-3.13 22.75-4 23.75-5.7 24.75-7.4 24.75-9.75L24.75-9.75Q24.75-15.1 19.6-17L19.6-17 16.6-18.1 19.4-19.7Q22.85-21.6 22.85-25.75L22.85-25.75Q22.85-33.5 11.05-33.5L11.05-33.5 6.45-33.5 6.45-1.5ZM33.2-29L34.7-29 34.7-14.5Q34.7-7.05 37.07-4.03 39.45-1 43.6-1 47.75-1 50.12-4.03 52.5-7.05 52.5-14.5L52.5-14.5 52.5-29 54-29 54-14.5Q54 0.5 43.6 0.5 33.2 0.5 33.2-14.5L33.2-14.5 33.2-29ZM67.7-0.05L67.7-1.5 87-1.5 87-26.9 75.75-15.65 64.5-26.9 64.5 0 63-0.05 63-29 64.5-29 75.75-17.75 87-29 88.5-29 88.5 0 67.7-0.05ZM108.74-35L133.74-35 133.74-33.5 121.99-33.5 121.99 0 120.49 0 120.49-33.5 108.74-33.5 108.74-35ZM153.84-27.48Q152.14-28 149.64-28 147.14-28 145.44-27.48 143.74-26.95 142.31-25.53 140.89-24.1 140.19-21.38 139.49-18.65 139.49-14.5 139.49-10.35 140.19-7.63 140.89-4.9 142.31-3.48 143.74-2.05 145.44-1.53 147.14-1 149.64-1 152.14-1 153.84-1.53 155.54-2.05 156.96-3.48 158.39-4.9 159.09-7.63 159.79-10.35 159.79-14.5 159.79-18.65 159.09-21.38 158.39-24.1 156.96-25.53 155.54-26.95 153.84-27.48ZM158.59-3.05Q155.89 0.5 149.64 0.5 143.39 0.5 140.69-3.05 137.99-6.6 137.99-14.5 137.99-22.4 140.69-25.95 143.39-29.5 149.64-29.5 155.89-29.5 158.59-25.95 161.29-22.4 161.29-14.5 161.29-6.6 158.59-3.05ZM192.48 0L192.48 0 184.48 0 184.48-35 190.58-35Q197.18-35 200.53-32.58 203.88-30.15 203.88-25.75L203.88-25.75Q203.88-20.75 199.68-18.4L199.68-18.4Q205.78-16.1 205.78-9.75L205.78-9.75Q205.78-5.25 202.48-2.63 199.18 0 192.48 0ZM185.98-1.5L192.48-1.5Q194.83-1.5 196.78-1.88 198.73-2.25 200.51-3.13 202.28-4 203.28-5.7 204.28-7.4 204.28-9.75L204.28-9.75Q204.28-15.1 199.13-17L199.13-17 196.13-18.1 198.93-19.7Q202.38-21.6 202.38-25.75L202.38-25.75Q202.38-33.5 190.58-33.5L190.58-33.5 185.98-33.5 185.98-1.5ZM212.73-29L214.23-29 214.23-14.5Q214.23-7.05 216.61-4.03 218.98-1 223.13-1 227.28-1 229.66-4.03 232.03-7.05 232.03-14.5L232.03-14.5 232.03-29 233.53-29 233.53-14.5Q233.53 0.5 223.13 0.5 212.73 0.5 212.73-14.5L212.73-14.5 212.73-29ZM244.03 0L242.53 0 242.53-29 244.03-29 260.33-2.75 260.33-29 261.83-29 261.83 0 260.33 0 244.03-26.3 244.03 0ZM275.13 0L275.13 0 271.33 0 271.33-29 275.13-29Q282.53-29 286.93-25.1 291.33-21.2 291.33-14.5 291.33-7.8 286.93-3.9 282.53 0 275.13 0ZM272.83-1.5L275.13-1.5Q281.88-1.5 285.85-4.95 289.83-8.4 289.83-14.5 289.83-20.6 285.85-24.05 281.88-27.5 275.13-27.5L275.13-27.5 272.83-27.5 272.83-1.5ZM300.47-1.5L315.67-1.5 315.67 0 298.97 0 298.97-29 300.47-29 300.47-1.5ZM339.72-3.95L340.82-2.95Q338.07 0.5 331.82 0.5 325.57 0.5 322.87-3.05 320.17-6.6 320.17-14.5 320.17-22.4 322.87-25.95 325.57-29.5 331.82-29.5L331.82-29.5Q339.07-29.5 341.67-24.75L341.67-24.75 329.42-14.5 327.07-14.5 339.72-25.05Q337.52-28 331.82-28L331.82-28Q329.32-28 327.62-27.48 325.92-26.95 324.5-25.53 323.07-24.1 322.37-21.38 321.67-18.65 321.67-14.5 321.67-10.35 322.37-7.63 323.07-4.9 324.5-3.48 325.92-2.05 327.62-1.53 329.32-1 331.82-1L331.82-1Q337.52-1 339.72-3.95L339.72-3.95Z" opacity="1" transform="matrix(1,0,0,1,0,0)" fill="#ffffff" class="slogan-text-1" data-fill-palette-color="secondary" id="text-1"></path></svg></g></svg></g></svg></g></svg></g><g><svg viewBox="0 0 454.77786474937227 454.77786474937227" height="454.77786474937227" width="454.77786474937227"><g><svg></svg></g><g id="icon-0"><svg viewBox="0 0 454.77786474937227 454.77786474937227" height="454.77786474937227" width="454.77786474937227"><g><path d="M0 227.389c0-125.583 101.805-227.389 227.389-227.389 125.583 0 227.389 101.805 227.389 227.389 0 125.583-101.805 227.389-227.389 227.389-125.583 0-227.389-101.805-227.389-227.389zM227.389 438.077c116.36 0 210.688-94.328 210.688-210.688 0-116.36-94.328-210.688-210.688-210.688-116.36 0-210.688 94.328-210.688 210.688 0 116.36 94.328 210.688 210.688 210.688z" data-fill-palette-color="tertiary" fill="#ffffff" stroke="transparent"></path></g><g transform="matrix(1,0,0,1,158.91169469172905,95.69392009283055)"><svg viewBox="0 0 136.95447536591416 263.39002456371117" height="263.39002456371117" width="136.95447536591416"><g><svg xmlns="http://www.w3.org/2000/svg" xmlns:xlink="http://www.w3.org/1999/xlink" version="1.1" x="0" y="0" viewBox="27 1.3787198066711426 50.24000549316406 96.62127685546875" enable-background="new 0 0 100 100" xml:space="preserve" width="136.95447536591416" height="263.39002456371117" class="icon-s-0" data-fill-palette-color="accent" id="s-0"><path d="M49.333 4.475c7.32 3.827 10.45 12.52 7.497 20.041 0.983-0.967 1.838-2.098 2.515-3.386 3.455-6.605 0.897-14.761-5.709-18.213-3.874-2.026-8.279-1.983-11.959-0.269C44.257 2.608 46.885 3.194 49.333 4.475z" fill="#ffffff" data-fill-palette-color="accent"></path><path d="M52.122 16.612C38.247 16.612 27 27.86 27 41.732c0 13.874 11.247 25.123 25.122 25.123 13.871 0 25.118-11.249 25.118-25.123C77.24 27.86 65.993 16.612 52.122 16.612zM39.754 53.094c-1.136 0-2.056-1.655-2.056-3.701 0-2.045 0.92-3.705 2.056-3.705 1.138 0 2.059 1.66 2.059 3.705C41.813 51.438 40.892 53.094 39.754 53.094zM52.922 66.262c-5.683 0-10.286-2.396-10.286-5.35 0-2.954 4.604-5.35 10.286-5.35 5.68 0 10.284 2.396 10.284 5.35C63.206 63.865 58.602 66.262 52.922 66.262zM65.263 53.094c-1.135 0-2.057-1.655-2.057-3.701 0-2.045 0.922-3.705 2.057-3.705 1.14 0 2.061 1.66 2.061 3.705C67.323 51.438 66.402 53.094 65.263 53.094z" fill="#ffffff" data-fill-palette-color="accent"></path><circle cx="52.645" cy="60.639" r="4.3" fill="#ffffff" data-fill-palette-color="accent"></circle><path d="M70.77 98c0.996-1 1.914-1.943 2.675-3.26 2.79-4.832 2.439-10.203-0.781-12.063-3.221-1.859-8.095 0.47-10.883 5.302C59.691 91.595 59.363 96 60.681 98H70.77z" fill="#ffffff" data-fill-palette-color="accent"></path><path d="M34.147 98h10.09c1.318-2 0.989-6.379-1.099-9.994-2.789-4.832-7.662-7.188-10.883-5.329-3.222 1.86-3.571 7.204-0.782 12.036C32.234 96.03 33.152 97 34.147 98z" fill="#ffffff" data-fill-palette-color="accent"></path><path d="M66.939 51.533c-0.374 0.941-0.983 1.561-1.677 1.561-0.927 0-1.703-1.113-1.959-2.635-3.296-0.781-7.106-1.234-11.182-1.234-3.746 0-7.27 0.383-10.374 1.05-0.22 1.617-1.026 2.819-1.994 2.819-0.75 0-1.399-0.729-1.758-1.809-5.092 1.697-8.353 4.289-8.353 7.195 0 5.109 10.064 9.254 22.479 9.254 12.411 0 22.477-4.145 22.477-9.254C74.599 55.71 71.625 53.23 66.939 51.533zM52.922 66.262c-5.683 0-10.286-2.395-10.286-5.35s4.604-5.35 10.286-5.35c5.68 0 10.284 2.395 10.284 5.35S58.602 66.262 52.922 66.262z" fill="#ffffff" data-fill-palette-color="accent"></path><path d="M62.415 85.081c-2.733-1.262-6.189-2.021-9.956-2.021-3.768 0-7.224 0.759-9.957 2.021 0.858 0.855 1.649 1.765 2.319 2.925C46.909 91.621 47.238 96 45.92 98h13.077c-1.317-2-0.989-6.379 1.099-9.994C60.766 86.846 61.557 85.937 62.415 85.081z" fill="#ffffff" data-fill-palette-color="accent"></path><g fill="#555759" data-fill-palette-color="accent"><path d="M43.004 67.99c0 0.004-0.001 0.007-0.001 0.01 1.159 0.485 2.542 0.878 4.08 1.152C45.545 68.874 44.164 68.479 43.004 67.99z" fill="#ffffff" data-fill-palette-color="accent"></path><path d="M48.193 69.325c-0.348-0.047-0.69-0.099-1.024-0.158C47.504 69.226 47.845 69.278 48.193 69.325z" fill="#ffffff" data-fill-palette-color="accent"></path><path d="M58.809 78.801c-2.03-3.518-2.761-7.158-2.133-9.547 0.079-0.012 0.156-0.027 0.234-0.04-1.463 0.239-3.049 0.377-4.72 0.377-1.333 0-2.616-0.085-3.823-0.241 0.041 0.005 0.078 0.012 0.119 0.017 0.574 2.389-0.17 5.974-2.167 9.435-0.983 1.702-2.145 3.149-3.351 4.271 0.697-0.267 1.406-0.515 2.136-0.721 0.255-0.075 0.518-0.143 0.78-0.21 0.043-0.011 0.086-0.022 0.131-0.032 1.068-0.268 2.2-0.466 3.38-0.588 0.04-0.005 0.079-0.007 0.118-0.011 0.336-0.034 0.676-0.063 1.019-0.084 0.157-0.009 0.315-0.014 0.474-0.021 0.244-0.011 0.488-0.023 0.736-0.027 0.426-0.008 0.854-0.006 1.283 0.008 0.432 0.014 0.857 0.038 1.283 0.072 0.247 0.02 0.489 0.047 0.733 0.073 0.155 0.016 0.314 0.031 0.47 0.05 0.342 0.042 0.679 0.093 1.012 0.147 0.039 0.006 0.078 0.012 0.118 0.019 1.17 0.195 2.286 0.465 3.337 0.798 0.044 0.013 0.085 0.027 0.128 0.041 0.259 0.084 0.517 0.167 0.766 0.258 0.449 0.158 0.889 0.331 1.324 0.512 0.009-0.075 0.015-0.153 0.022-0.229C60.991 81.997 59.808 80.531 58.809 78.801z" fill="#ffffff" data-fill-palette-color="accent"></path></g><path d="M64.146 83.349c2.555-2.521 5.7-3.574 8.092-2.507-0.054-2.185-0.84-4.859-2.347-7.468C68.296 70.61 66.966 69.093 65 68c-1.479 0.829-4.258 0.889-6.641 1.254-0.627 2.389 0.103 6.029 2.133 9.547C61.557 80.646 62.831 82.194 64.146 83.349z" fill="#ffffff" data-fill-palette-color="accent"></path><path d="M40.864 83.445c1.356-1.163 2.674-2.745 3.771-4.645 1.999-3.461 2.742-7.046 2.167-9.435C44.295 69.057 41.61 68.816 40 68c-1.855 1.143-3.266 2.78-4.763 5.374-1.484 2.569-2.268 5.203-2.341 7.367C35.288 79.819 38.37 80.934 40.864 83.445z" fill="#ffffff" data-fill-palette-color="accent"></path></svg></g></svg></g></svg></g></svg></g></svg></g><defs></defs></svg><rect width="395.52" height="191.81677994990267" fill="none" stroke="none" visibility="hidden"></rect></g></svg></g></svg>