<svg xmlns="http://www.w3.org/2000/svg" version="1.1" xmlns:xlink="http://www.w3.org/1999/xlink" xmlns:svgjs="http://svgjs.dev/svgjs" width="1500" height="1500" viewBox="0 0 1500 1500"><rect width="1500" height="1500" fill="#000000"></rect><g transform="matrix(0.6666666666666666,0,0,0.6666666666666666,249.39393939393938,633.7337427336696)"><svg viewBox="0 0 396 92" data-background-color="#ffffff" preserveAspectRatio="xMidYMid meet" height="348" width="1500" xmlns="http://www.w3.org/2000/svg" xmlns:xlink="http://www.w3.org/1999/xlink"><g id="tight-bounds" transform="matrix(1,0,0,1,0.2400000000000091,0.10558477802757693)"><svg viewBox="0 0 395.52 91.7887614916032" height="91.7887614916032" width="395.52"><g><svg viewBox="0 0 548.2539807578489 127.233904421026" height="91.7887614916032" width="395.52"><g transform="matrix(1,0,0,1,152.73398075784894,36.61285571529224)"><svg viewBox="0 0 395.52 54.00819299044151" height="54.00819299044151" width="395.52"><g id="textblocktransform"><svg viewBox="0 0 395.52 54.00819299044151" height="54.00819299044151" width="395.52" id="textblock"><g><svg viewBox="0 0 395.52 54.00819299044151" height="54.00819299044151" width="395.52"><g transform="matrix(1,0,0,1,0,0)"><svg width="395.52" viewBox="4.95 -35 329.52000000000004 45" height="54.00819299044151" data-palette-color="#555759"><path d="M12.95 0L12.95 0 4.95 0 4.95-35 11.05-35Q17.65-35 21-32.58 24.35-30.15 24.35-25.75L24.35-25.75Q24.35-20.75 20.15-18.4L20.15-18.4Q26.25-16.1 26.25-9.75L26.25-9.75Q26.25-5.25 22.95-2.63 19.65 0 12.95 0ZM6.45-1.5L12.95-1.5Q15.3-1.5 17.25-1.88 19.2-2.25 20.98-3.13 22.75-4 23.75-5.7 24.75-7.4 24.75-9.75L24.75-9.75Q24.75-15.1 19.6-17L19.6-17 16.6-18.1 19.4-19.7Q22.85-21.6 22.85-25.75L22.85-25.75Q22.85-33.5 11.05-33.5L11.05-33.5 6.45-33.5 6.45-1.5ZM33.2-29L34.7-29 34.7-14.5Q34.7-7.05 37.07-4.03 39.45-1 43.6-1 47.75-1 50.12-4.03 52.5-7.05 52.5-14.5L52.5-14.5 52.5-29 54-29 54-14.5Q54 0.5 43.6 0.5 33.2 0.5 33.2-14.5L33.2-14.5 33.2-29ZM67.7-0.05L67.7-1.5 87-1.5 87-26.9 75.75-15.65 64.5-26.9 64.5 0 63-0.05 63-29 64.5-29 75.75-17.75 87-29 88.5-29 88.5 0 67.7-0.05ZM113.19-12.4L110.39-10.8 109.64-12.1 112.44-13.7Q115.89-15.6 115.89-19.75L115.89-19.75Q115.89-27.5 104.09-27.5L104.09-27.5 99.49-27.5 99.49 10 97.99 10 97.99-29 104.09-29Q110.69-29 114.04-26.58 117.39-24.15 117.39-19.75L117.39-19.75Q117.39-14.75 113.19-12.4L113.19-12.4ZM120.69-29L143.19-29 143.19-27.5 132.69-27.5 132.69 0 131.19 0 131.19-27.5 120.69-27.5 120.69-29ZM163.54-27.48Q161.84-28 159.34-28 156.84-28 155.14-27.48 153.44-26.95 152.01-25.53 150.59-24.1 149.89-21.38 149.19-18.65 149.19-14.5 149.19-10.35 149.89-7.63 150.59-4.9 152.01-3.48 153.44-2.05 155.14-1.53 156.84-1 159.34-1 161.84-1 163.54-1.53 165.24-2.05 166.66-3.48 168.09-4.9 168.79-7.63 169.49-10.35 169.49-14.5 169.49-18.65 168.79-21.38 168.09-24.1 166.66-25.53 165.24-26.95 163.54-27.48ZM168.29-3.05Q165.59 0.5 159.34 0.5 153.09 0.5 150.39-3.05 147.69-6.6 147.69-14.5 147.69-22.4 150.39-25.95 153.09-29.5 159.34-29.5 165.59-29.5 168.29-25.95 170.99-22.4 170.99-14.5 170.99-6.6 168.29-3.05ZM186.44 0L186.44 0 179.24 0 179.24-29 184.74-29Q190.64-29 193.66-26.95 196.69-24.9 196.69-21.35L196.69-21.35Q196.69-17.1 192.94-15.2L192.94-15.2Q195.69-14.25 197.04-12.38 198.39-10.5 198.39-8.05L198.39-8.05Q198.39-4.45 195.41-2.23 192.44 0 186.44 0ZM180.74-1.5L186.44-1.5Q190.84-1.5 193.86-3.1 196.89-4.7 196.89-8.05L196.89-8.05Q196.89-9.6 195.74-11.43 194.59-13.25 192.19-14.1L192.19-14.1 189.59-15 191.99-16.25Q193.24-16.9 194.21-18.23 195.19-19.55 195.19-21.35L195.19-21.35Q195.19-24.5 192.19-26 189.19-27.5 184.74-27.5L184.74-27.5 180.74-27.5 180.74-1.5ZM205.53-29L207.03-29 207.03-14.5Q207.03-7.05 209.41-4.03 211.78-1 215.93-1 220.08-1 222.46-4.03 224.83-7.05 224.83-14.5L224.83-14.5 224.83-29 226.33-29 226.33-14.5Q226.33 0.5 215.93 0.5 205.53 0.5 205.53-14.5L205.53-14.5 205.53-29ZM236.83 0L235.33 0 235.33-29 236.83-29 253.13-2.75 253.13-29 254.63-29 254.63 0 253.13 0 236.83-26.3 236.83 0ZM267.93 0L267.93 0 264.13 0 264.13-29 267.93-29Q275.33-29 279.73-25.1 284.13-21.2 284.13-14.5 284.13-7.8 279.73-3.9 275.33 0 267.93 0ZM265.63-1.5L267.93-1.5Q274.68-1.5 278.65-4.95 282.63-8.4 282.63-14.5 282.63-20.6 278.65-24.05 274.68-27.5 267.93-27.5L267.93-27.5 265.63-27.5 265.63-1.5ZM293.28-1.5L308.48-1.5 308.48 0 291.78 0 291.78-29 293.28-29 293.28-1.5ZM332.52-3.95L333.62-2.95Q330.87 0.5 324.62 0.5 318.37 0.5 315.67-3.05 312.97-6.6 312.97-14.5 312.97-22.4 315.67-25.95 318.37-29.5 324.62-29.5L324.62-29.5Q331.87-29.5 334.47-24.75L334.47-24.75 322.22-14.5 319.87-14.5 332.52-25.05Q330.32-28 324.62-28L324.62-28Q322.12-28 320.42-27.48 318.72-26.95 317.3-25.53 315.87-24.1 315.17-21.38 314.47-18.65 314.47-14.5 314.47-10.35 315.17-7.63 315.87-4.9 317.3-3.48 318.72-2.05 320.42-1.53 322.12-1 324.62-1L324.62-1Q330.32-1 332.52-3.95L332.52-3.95Z" opacity="1" transform="matrix(1,0,0,1,0,0)" fill="#ffffff" class="wordmark-text-0" data-fill-palette-color="primary" id="text-0"></path></svg></g></svg></g></svg></g></svg></g><g><svg viewBox="0 0 127.233904421026 127.233904421026" height="127.233904421026" width="127.233904421026"><g><svg></svg></g><g id="icon-0"><svg viewBox="0 0 127.233904421026 127.233904421026" height="127.233904421026" width="127.233904421026"><g><path d="M0 63.617c0-35.135 28.482-63.617 63.617-63.617 35.135 0 63.617 28.482 63.617 63.617 0 35.135-28.482 63.617-63.617 63.617-35.135 0-63.617-28.482-63.617-63.617zM63.617 122.363c32.445 0 58.746-26.302 58.746-58.746 0-32.445-26.302-58.746-58.746-58.746-32.445 0-58.746 26.302-58.746 58.746 0 32.445 26.302 58.746 58.746 58.746z" data-fill-palette-color="tertiary" fill="#ffffff" stroke="transparent"></path></g><g transform="matrix(1,0,0,1,46.511009878174825,30.718901401192788)"><svg viewBox="0 0 34.21188466467635 65.79610161864042" height="65.79610161864042" width="34.21188466467635"><g><svg xmlns="http://www.w3.org/2000/svg" xmlns:xlink="http://www.w3.org/1999/xlink" version="1.1" x="0" y="0" viewBox="27 1.3787183103212488 50.239999999999995 96.62128168967875" enable-background="new 0 0 100 100" xml:space="preserve" width="34.21188466467635" height="65.79610161864042" class="icon-cg-0" data-fill-palette-color="accent" id="cg-0"><path d="M49.333 4.475c7.32 3.827 10.45 12.52 7.497 20.041 0.983-0.967 1.838-2.098 2.515-3.386 3.455-6.605 0.897-14.761-5.709-18.213-3.874-2.026-8.279-1.983-11.959-0.269C44.257 2.608 46.885 3.194 49.333 4.475z" fill="#ffffff" data-fill-palette-color="accent"></path><path d="M52.122 16.612C38.247 16.612 27 27.86 27 41.732c0 13.874 11.247 25.123 25.122 25.123 13.871 0 25.118-11.249 25.118-25.123C77.24 27.86 65.993 16.612 52.122 16.612zM39.754 53.094c-1.136 0-2.056-1.655-2.056-3.701 0-2.045 0.92-3.705 2.056-3.705 1.138 0 2.059 1.66 2.059 3.705C41.813 51.438 40.892 53.094 39.754 53.094zM52.922 66.262c-5.683 0-10.286-2.396-10.286-5.35 0-2.954 4.604-5.35 10.286-5.35 5.68 0 10.284 2.396 10.284 5.35C63.206 63.865 58.602 66.262 52.922 66.262zM65.263 53.094c-1.135 0-2.057-1.655-2.057-3.701 0-2.045 0.922-3.705 2.057-3.705 1.14 0 2.061 1.66 2.061 3.705C67.323 51.438 66.402 53.094 65.263 53.094z" fill="#ffffff" data-fill-palette-color="accent"></path><circle cx="52.645" cy="60.639" r="4.3" fill="#ffffff" data-fill-palette-color="accent"></circle><path d="M70.77 98c0.996-1 1.914-1.943 2.675-3.26 2.79-4.832 2.439-10.203-0.781-12.063-3.221-1.859-8.095 0.47-10.883 5.302C59.691 91.595 59.363 96 60.681 98H70.77z" fill="#ffffff" data-fill-palette-color="accent"></path><path d="M34.147 98h10.09c1.318-2 0.989-6.379-1.099-9.994-2.789-4.832-7.662-7.188-10.883-5.329-3.222 1.86-3.571 7.204-0.782 12.036C32.234 96.03 33.152 97 34.147 98z" fill="#ffffff" data-fill-palette-color="accent"></path><path d="M66.939 51.533c-0.374 0.941-0.983 1.561-1.677 1.561-0.927 0-1.703-1.113-1.959-2.635-3.296-0.781-7.106-1.234-11.182-1.234-3.746 0-7.27 0.383-10.374 1.05-0.22 1.617-1.026 2.819-1.994 2.819-0.75 0-1.399-0.729-1.758-1.809-5.092 1.697-8.353 4.289-8.353 7.195 0 5.109 10.064 9.254 22.479 9.254 12.411 0 22.477-4.145 22.477-9.254C74.599 55.71 71.625 53.23 66.939 51.533zM52.922 66.262c-5.683 0-10.286-2.395-10.286-5.35s4.604-5.35 10.286-5.35c5.68 0 10.284 2.395 10.284 5.35S58.602 66.262 52.922 66.262z" fill="#ffffff" data-fill-palette-color="accent"></path><path d="M62.415 85.081c-2.733-1.262-6.189-2.021-9.956-2.021-3.768 0-7.224 0.759-9.957 2.021 0.858 0.855 1.649 1.765 2.319 2.925C46.909 91.621 47.238 96 45.92 98h13.077c-1.317-2-0.989-6.379 1.099-9.994C60.766 86.846 61.557 85.937 62.415 85.081z" fill="#ffffff" data-fill-palette-color="accent"></path><g fill="#555759" data-fill-palette-color="accent"><path d="M43.004 67.99c0 0.004-0.001 0.007-0.001 0.01 1.159 0.485 2.542 0.878 4.08 1.152C45.545 68.874 44.164 68.479 43.004 67.99z" fill="#ffffff" data-fill-palette-color="accent"></path><path d="M48.193 69.325c-0.348-0.047-0.69-0.099-1.024-0.158C47.504 69.226 47.845 69.278 48.193 69.325z" fill="#ffffff" data-fill-palette-color="accent"></path><path d="M58.809 78.801c-2.03-3.518-2.761-7.158-2.133-9.547 0.079-0.012 0.156-0.027 0.234-0.04-1.463 0.239-3.049 0.377-4.72 0.377-1.333 0-2.616-0.085-3.823-0.241 0.041 0.005 0.078 0.012 0.119 0.017 0.574 2.389-0.17 5.974-2.167 9.435-0.983 1.702-2.145 3.149-3.351 4.271 0.697-0.267 1.406-0.515 2.136-0.721 0.255-0.075 0.518-0.143 0.78-0.21 0.043-0.011 0.086-0.022 0.131-0.032 1.068-0.268 2.2-0.466 3.38-0.588 0.04-0.005 0.079-0.007 0.118-0.011 0.336-0.034 0.676-0.063 1.019-0.084 0.157-0.009 0.315-0.014 0.474-0.021 0.244-0.011 0.488-0.023 0.736-0.027 0.426-0.008 0.854-0.006 1.283 0.008 0.432 0.014 0.857 0.038 1.283 0.072 0.247 0.02 0.489 0.047 0.733 0.073 0.155 0.016 0.314 0.031 0.47 0.05 0.342 0.042 0.679 0.093 1.012 0.147 0.039 0.006 0.078 0.012 0.118 0.019 1.17 0.195 2.286 0.465 3.337 0.798 0.044 0.013 0.085 0.027 0.128 0.041 0.259 0.084 0.517 0.167 0.766 0.258 0.449 0.158 0.889 0.331 1.324 0.512 0.009-0.075 0.015-0.153 0.022-0.229C60.991 81.997 59.808 80.531 58.809 78.801z" fill="#ffffff" data-fill-palette-color="accent"></path></g><path d="M64.146 83.349c2.555-2.521 5.7-3.574 8.092-2.507-0.054-2.185-0.84-4.859-2.347-7.468C68.296 70.61 66.966 69.093 65 68c-1.479 0.829-4.258 0.889-6.641 1.254-0.627 2.389 0.103 6.029 2.133 9.547C61.557 80.646 62.831 82.194 64.146 83.349z" fill="#ffffff" data-fill-palette-color="accent"></path><path d="M40.864 83.445c1.356-1.163 2.674-2.745 3.771-4.645 1.999-3.461 2.742-7.046 2.167-9.435C44.295 69.057 41.61 68.816 40 68c-1.855 1.143-3.266 2.78-4.763 5.374-1.484 2.569-2.268 5.203-2.341 7.367C35.288 79.819 38.37 80.934 40.864 83.445z" fill="#ffffff" data-fill-palette-color="accent"></path></svg></g></svg></g></svg></g></svg></g></svg></g><defs></defs></svg><rect width="395.52" height="91.7887614916032" fill="none" stroke="none" visibility="hidden"></rect></g></svg></g></svg>